<?xml version="1.0" encoding="iso-8859-1"?>
<!-- Generator: Adobe Illustrator 19.0.0, SVG Export Plug-In . SVG Version: 6.00 Build 0)  -->
<svg version="1.1" id="Layer_1" xmlns="http://www.w3.org/2000/svg" xmlns:xlink="http://www.w3.org/1999/xlink" x="0px" y="0px"
	 viewBox="0 0 511.882 511.882" style="enable-background:new 0 0 511.882 511.882;" xml:space="preserve">
<polygon style="fill:#E6E9ED;" points="320.05,167.821 426.543,167.712 511.882,274.342 511.664,380.974 298.572,380.974 "/>
<path style="fill:#5D9CEC;" d="M341.234,359.651c0,11.778-9.545,21.323-21.34,21.323H21.323C9.544,380.974,0,371.429,0,359.651
	V103.726c0-11.779,9.56-21.323,21.339-21.323H319.91c11.779,0,21.324,9.544,21.324,21.323L341.234,359.651L341.234,359.651z"/>
<path style="fill:#434A54;" d="M357.23,370.836c0,32.398,26.26,58.643,58.643,58.643c32.398,0,58.658-26.244,58.658-58.643
	s-26.26-58.643-58.658-58.643C383.49,312.193,357.23,338.438,357.23,370.836z"/>
<path style="fill:#E6E9ED;" d="M394.549,370.836c0,11.778,9.545,21.323,21.323,21.323c11.779,0,21.323-9.545,21.323-21.323
	s-9.544-21.323-21.323-21.323C404.094,349.512,394.549,359.057,394.549,370.836z"/>
<circle style="fill:#434A54;" cx="106.631" cy="370.84" r="57.643"/>
<g>
	<circle style="fill:#E6E9ED;" cx="106.631" cy="370.84" r="21.323"/>
	<polygon style="fill:#E6E9ED;" points="64.001,284.996 124.924,183.442 185.863,284.996 	"/>
</g>
<polygon style="fill:#F5F7FA;" points="114.77,284.996 196.017,142.827 277.263,284.996 "/>
<g>
</g>
<g>
</g>
<g>
</g>
<g>
</g>
<g>
</g>
<g>
</g>
<g>
</g>
<g>
</g>
<g>
</g>
<g>
</g>
<g>
</g>
<g>
</g>
<g>
</g>
<g>
</g>
<g>
</g>
</svg>
