<?xml version="1.0" encoding="iso-8859-1"?>
<!-- Generator: Adobe Illustrator 19.0.0, SVG Export Plug-In . SVG Version: 6.00 Build 0)  -->
<svg version="1.1" id="Layer_1" xmlns="http://www.w3.org/2000/svg" xmlns:xlink="http://www.w3.org/1999/xlink" x="0px" y="0px"
	 viewBox="0 0 511.883 511.883" style="enable-background:new 0 0 511.883 511.883;" xml:space="preserve">
<polygon style="fill:#CCD1D9;" points="341.251,479.885 170.626,479.885 191.894,373.316 319.942,373.285 "/>
<g>
	<path style="fill:#E6E9ED;" d="M511.883,383.909c0,5.905-4.781,10.653-10.67,10.653H10.662C4.773,394.561,0,389.814,0,383.908
		V42.651c0-5.889,4.772-10.653,10.662-10.653h490.551c5.889,0,10.67,4.764,10.67,10.653V383.909z"/>
	<path style="fill:#E6E9ED;" d="M341.251,479.885H170.626c-5.89,0-10.662-4.779-10.662-10.653c0-5.905,4.772-10.686,10.662-10.686
		h170.625c5.889,0,10.669,4.78,10.669,10.686C351.92,475.107,347.139,479.885,341.251,479.885z"/>
</g>
<path style="fill:#A0D468;" d="M501.213,31.998H10.662C4.773,31.998,0,36.762,0,42.651v287.926h511.883V42.651
	C511.883,36.762,507.102,31.998,501.213,31.998z"/>
<rect x="42.655" y="74.642" style="fill:#FFCE54;" width="426.57" height="149.29"/>
<path style="fill:#434A54;" d="M266.603,362.569c0,5.905-4.78,10.685-10.669,10.685c-5.889,0-10.662-4.779-10.662-10.685
	c0-5.874,4.772-10.653,10.662-10.653S266.603,356.695,266.603,362.569z"/>
<rect x="42.655" y="245.271" style="fill:#FFCE54;" width="213.28" height="85.3"/>
<g>
	<path style="fill:#434A54;" d="M437.228,266.599H287.934c-5.904,0-10.67-4.765-10.67-10.67c0-5.889,4.766-10.654,10.67-10.654
		h149.294c5.89,0,10.669,4.765,10.669,10.654C447.897,261.836,443.118,266.599,437.228,266.599z"/>
	<path style="fill:#434A54;" d="M394.566,159.952H117.302c-5.89,0-10.662-4.765-10.662-10.654s4.772-10.669,10.662-10.669h277.264
		c5.905,0,10.669,4.78,10.669,10.669C405.235,155.188,400.471,159.952,394.566,159.952z"/>
	<path style="fill:#434A54;" d="M437.228,309.27H287.934c-5.904,0-10.67-4.78-10.67-10.686c0-5.873,4.766-10.654,10.67-10.654
		h149.294c5.89,0,10.669,4.781,10.669,10.654C447.897,304.49,443.118,309.27,437.228,309.27z"/>
</g>
<g>
</g>
<g>
</g>
<g>
</g>
<g>
</g>
<g>
</g>
<g>
</g>
<g>
</g>
<g>
</g>
<g>
</g>
<g>
</g>
<g>
</g>
<g>
</g>
<g>
</g>
<g>
</g>
<g>
</g>
</svg>
