<?xml version="1.0" encoding="iso-8859-1"?>
<!-- Generator: Adobe Illustrator 19.0.0, SVG Export Plug-In . SVG Version: 6.00 Build 0)  -->
<svg version="1.1" id="Layer_1" xmlns="http://www.w3.org/2000/svg" xmlns:xlink="http://www.w3.org/1999/xlink" x="0px" y="0px"
	 viewBox="0 0 511.882 511.882" style="enable-background:new 0 0 511.882 511.882;" xml:space="preserve">
<polygon style="fill:#E6E9ED;" points="128.205,489.262 22.635,383.677 7.545,398.767 0,511.882 113.13,504.337 "/>
<polygon style="fill:#F5F7FA;" points="162.15,402.533 109.349,349.732 22.635,383.677 15.09,496.807 128.205,489.262 "/>
<path style="fill:#656D78;" d="M493.136,18.746c-24.979-24.994-65.5-24.994-90.495,0L75.42,345.967l90.495,90.495l327.222-327.223
	C518.13,84.246,518.13,43.74,493.136,18.746z"/>
<path style="fill:#CCD1D9;" d="M128.205,398.767l-15.074-15.09l-37.711,37.71l0,0l0,0c-4.171,4.155-4.171,10.92,0,15.075
	c4.171,4.171,10.92,4.171,15.091,0l0,0L128.205,398.767z"/>
<path style="fill:#434A54;" d="M150.84,421.387L474.078,98.149c4.156-4.171,4.156-10.919,0-15.09c-4.17-4.155-10.919-4.155-15.09,0
	L135.75,406.297L150.84,421.387z"/>
<g>
</g>
<g>
</g>
<g>
</g>
<g>
</g>
<g>
</g>
<g>
</g>
<g>
</g>
<g>
</g>
<g>
</g>
<g>
</g>
<g>
</g>
<g>
</g>
<g>
</g>
<g>
</g>
<g>
</g>
</svg>
