<?xml version="1.0" encoding="iso-8859-1"?>
<!-- Generator: Adobe Illustrator 19.0.0, SVG Export Plug-In . SVG Version: 6.00 Build 0)  -->
<svg version="1.1" id="Layer_1" xmlns="http://www.w3.org/2000/svg" xmlns:xlink="http://www.w3.org/1999/xlink" x="0px" y="0px"
	 viewBox="0 0 511.881 511.881" style="enable-background:new 0 0 511.881 511.881;" xml:space="preserve">
<path style="fill:#E6E9ED;" d="M401.189,111.745c-79.639-21.339-161.495,25.916-182.833,105.554
	c-21.339,79.653,25.924,161.51,105.57,182.849c79.638,21.339,161.494-25.916,182.832-105.569
	C528.097,214.94,480.827,133.084,401.189,111.745z M373.226,274.411c-10.217,5.889-23.244,2.39-29.134-7.795
	c-5.89-10.201-2.39-23.245,7.795-29.134c10.216-5.889,23.245-2.39,29.134,7.795C386.911,255.477,383.412,268.521,373.226,274.411z"
	/>
<path style="fill:#F5F7FA;" d="M506.757,294.578c0.938-3.452,1.719-6.921,2.391-10.388l-125.986-33.759
	c2.437,9.092-1.406,19.043-9.936,23.979c-1.656,0.953-3.39,1.655-5.154,2.14l92.26,92.229
	C482.138,349.925,498.728,324.54,506.757,294.578z"/>
<path style="fill:#CCD1D9;" d="M362.556,298.592c-23.51,0-42.662-19.121-42.662-42.646c0-23.526,19.152-42.646,42.662-42.646
	c23.511,0,42.662,19.121,42.662,42.646C405.218,279.471,386.067,298.592,362.556,298.592z M362.556,234.623
	c-11.762,0-21.322,9.561-21.322,21.323c0,11.762,9.561,21.323,21.322,21.323c11.764,0,21.324-9.561,21.324-21.323
	C383.88,244.184,374.32,234.623,362.556,234.623z"/>
<rect y="85.326" style="fill:#FFCE54;" width="341.23" height="341.23"/>
<polygon style="fill:#434A54;" points="58.65,330.585 122.635,223.953 186.613,330.585 "/>
<polygon style="fill:#656D78;" points="111.966,330.585 197.274,181.291 282.591,330.585 "/>
<g>
</g>
<g>
</g>
<g>
</g>
<g>
</g>
<g>
</g>
<g>
</g>
<g>
</g>
<g>
</g>
<g>
</g>
<g>
</g>
<g>
</g>
<g>
</g>
<g>
</g>
<g>
</g>
<g>
</g>
</svg>
