<?xml version="1.0" encoding="iso-8859-1"?>
<!-- Generator: Adobe Illustrator 19.0.0, SVG Export Plug-In . SVG Version: 6.00 Build 0)  -->
<svg version="1.1" id="Layer_1" xmlns="http://www.w3.org/2000/svg" xmlns:xlink="http://www.w3.org/1999/xlink" x="0px" y="0px"
	 viewBox="0 0 511.882 511.882" style="enable-background:new 0 0 511.882 511.882;" xml:space="preserve">
<path style="fill:#A0D468;" d="M458.566,234.61c0,5.89-4.78,10.669-10.67,10.669H63.985c-5.89,0-10.669-4.78-10.669-10.669V10.662
	C53.316,4.772,58.095,0,63.985,0h383.911c5.89,0,10.67,4.772,10.67,10.662L458.566,234.61L458.566,234.61z"/>
<g>
	<path style="fill:#E6E9ED;" d="M458.566,501.228c0,5.874-4.78,10.654-10.67,10.654H63.985c-5.89,0-10.669-4.78-10.669-10.654
		V277.28c0-5.897,4.779-10.677,10.669-10.677h383.911c5.89,0,10.67,4.779,10.67,10.677L458.566,501.228L458.566,501.228z"/>
	<polygon style="fill:#E6E9ED;" points="159.417,181.294 214.576,89.37 269.734,181.294 	"/>
</g>
<polygon style="fill:#F5F7FA;" points="205.39,181.294 278.92,52.597 352.465,181.294 "/>
<g>
	<path style="fill:#434A54;" d="M309.256,426.558H202.625c-5.889,0-10.669-4.765-10.669-10.654c0-5.889,4.78-10.653,10.669-10.653
		h106.632c5.89,0,10.669,4.765,10.669,10.653C319.925,421.794,315.146,426.558,309.256,426.558z"/>
	<path style="fill:#434A54;" d="M362.587,383.912H149.294c-5.89,0-10.653-4.78-10.653-10.654c0-5.904,4.764-10.685,10.653-10.685
		h213.294c5.89,0,10.654,4.78,10.654,10.685C373.242,379.131,368.477,383.912,362.587,383.912z"/>
</g>
<g>
</g>
<g>
</g>
<g>
</g>
<g>
</g>
<g>
</g>
<g>
</g>
<g>
</g>
<g>
</g>
<g>
</g>
<g>
</g>
<g>
</g>
<g>
</g>
<g>
</g>
<g>
</g>
<g>
</g>
</svg>
