<?xml version="1.0" encoding="iso-8859-1"?>
<!-- Generator: Adobe Illustrator 19.0.0, SVG Export Plug-In . SVG Version: 6.00 Build 0)  -->
<svg version="1.1" id="Layer_1" xmlns="http://www.w3.org/2000/svg" xmlns:xlink="http://www.w3.org/1999/xlink" x="0px" y="0px"
	 viewBox="0 0 511.882 511.882" style="enable-background:new 0 0 511.882 511.882;" xml:space="preserve">
<polygon style="fill:#E6E9ED;" points="373.242,0 53.316,0 53.316,511.882 458.566,511.882 458.566,85.308 "/>
<polygon style="fill:#4A89DC;" points="117.301,170.625 166.055,89.37 214.81,170.625 "/>
<polygon style="fill:#5D9CEC;" points="157.932,170.625 222.933,56.87 287.933,170.625 "/>
<g>
	<path style="fill:#434A54;" d="M383.912,298.587H127.97c-5.89,0-10.669-4.765-10.669-10.654c0-5.904,4.779-10.669,10.669-10.669
		h255.941c5.889,0,10.669,4.765,10.669,10.669C394.581,293.823,389.8,298.587,383.912,298.587z"/>
	<path style="fill:#434A54;" d="M383.912,362.573H127.97c-5.89,0-10.669-4.765-10.669-10.653c0-5.905,4.779-10.67,10.669-10.67
		h255.941c5.889,0,10.669,4.765,10.669,10.67C394.581,357.808,389.8,362.573,383.912,362.573z"/>
	<path style="fill:#434A54;" d="M266.61,426.558H127.97c-5.89,0-10.669-4.765-10.669-10.654c0-5.904,4.779-10.669,10.669-10.669
		h138.64c5.89,0,10.653,4.765,10.653,10.669C277.263,421.794,272.5,426.558,266.61,426.558z"/>
</g>
<polygon style="fill:#CCD1D9;" points="373.242,0 373.242,85.308 458.566,85.308 "/>
<g>
</g>
<g>
</g>
<g>
</g>
<g>
</g>
<g>
</g>
<g>
</g>
<g>
</g>
<g>
</g>
<g>
</g>
<g>
</g>
<g>
</g>
<g>
</g>
<g>
</g>
<g>
</g>
<g>
</g>
</svg>
