<?xml version="1.0" encoding="iso-8859-1"?>
<!-- Generator: Adobe Illustrator 19.0.0, SVG Export Plug-In . SVG Version: 6.00 Build 0)  -->
<svg version="1.1" id="Layer_1" xmlns="http://www.w3.org/2000/svg" xmlns:xlink="http://www.w3.org/1999/xlink" x="0px" y="0px"
	 viewBox="0 0 511.883 511.883" style="enable-background:new 0 0 511.883 511.883;" xml:space="preserve">
<path style="fill:#F5F7FA;" d="M511.883,469.237c0,5.89-4.781,10.653-10.67,10.653H10.662C4.773,479.889,0,475.125,0,469.236V85.325
	c0-5.889,4.772-10.669,10.662-10.669h490.551c5.889,0,10.67,4.78,10.67,10.669V469.237z"/>
<path style="fill:#CCD1D9;" d="M255.934,74.656H10.662C4.773,74.656,0,79.436,0,85.325v383.912c0,5.89,4.772,10.653,10.662,10.653
	h245.271V74.656H255.934z"/>
<polygon style="fill:#E6E9ED;" points="255.934,479.889 42.655,437.243 42.655,31.994 255.934,74.656 "/>
<rect x="298.592" y="117.322" style="fill:#ED5564;" width="63.984" height="63.985"/>
<rect x="383.912" y="117.322" style="fill:#FC6E51;" width="63.984" height="63.985"/>
<rect x="298.592" y="202.622" style="fill:#FFCE54;" width="63.984" height="63.986"/>
<rect x="383.912" y="202.622" style="fill:#A0D468;" width="63.984" height="63.986"/>
<rect x="298.592" y="287.931" style="fill:#48CFAD;" width="63.984" height="63.986"/>
<rect x="383.912" y="287.931" style="fill:#4FC2E9;" width="63.984" height="63.986"/>
<rect x="298.592" y="373.262" style="fill:#5D9CEC;" width="63.984" height="63.985"/>
<rect x="383.912" y="373.262" style="fill:#AC92EB;" width="63.984" height="63.985"/>
<g>
</g>
<g>
</g>
<g>
</g>
<g>
</g>
<g>
</g>
<g>
</g>
<g>
</g>
<g>
</g>
<g>
</g>
<g>
</g>
<g>
</g>
<g>
</g>
<g>
</g>
<g>
</g>
<g>
</g>
</svg>
