<?xml version="1.0" encoding="iso-8859-1"?>
<!-- Generator: Adobe Illustrator 19.0.0, SVG Export Plug-In . SVG Version: 6.00 Build 0)  -->
<svg version="1.1" id="Layer_1" xmlns="http://www.w3.org/2000/svg" xmlns:xlink="http://www.w3.org/1999/xlink" x="0px" y="0px"
	 viewBox="0 0 511.882 511.882" style="enable-background:new 0 0 511.882 511.882;" xml:space="preserve">
<rect x="199.492" y="-23.826" transform="matrix(-0.7071 -0.7071 0.7071 -0.7071 263.4849 636.0924)" style="fill:#F6BB42;" width="127.979" height="574.604"/>
<rect x="184.414" y="-38.904" transform="matrix(-0.7071 -0.7071 0.7071 -0.7071 248.3902 599.6835)" style="fill:#FFCE54;" width="127.959" height="574.604"/>
<g>
	<path style="fill:#656D78;" d="M67.607,368.837l-15.075-15.075l-15.075,15.091l15.075,15.074l0,0c4.171,4.171,10.919,4.171,15.09,0
		c4.155-4.171,4.155-10.919,0-15.074C67.623,368.837,67.607,368.837,67.607,368.837z"/>
	<path style="fill:#656D78;" d="M112.862,323.597l-15.075-15.074l-15.09,15.074l15.09,15.09l0,0c4.155,4.156,10.919,4.156,15.075,0
		C117.033,334.517,117.033,327.768,112.862,323.597L112.862,323.597z"/>
	<path style="fill:#656D78;" d="M158.102,278.358l-15.075-15.075l-15.09,15.075l15.09,15.074c0,0,0,0,0,0.016
		c4.171,4.155,10.919,4.155,15.075,0C162.272,289.277,162.272,282.529,158.102,278.358L158.102,278.358z"/>
	<path style="fill:#656D78;" d="M203.357,233.118L203.357,233.118l-15.09-15.09l-15.075,15.09l15.075,15.075l0,0
		c4.171,4.171,10.919,4.171,15.09,0C207.512,244.038,207.512,237.274,203.357,233.118L203.357,233.118z"/>
	<path style="fill:#656D78;" d="M248.581,187.863l-15.075-15.075l-15.075,15.09l15.075,15.075l0,0c4.171,4.171,10.919,4.171,15.09,0
		c4.155-4.171,4.155-10.919,0-15.075L248.581,187.863z"/>
	<path style="fill:#656D78;" d="M293.836,142.624l-15.075-15.075l-15.09,15.075l15.09,15.09l0,0c4.156,4.155,10.904,4.155,15.075,0
		C298.007,153.543,298.007,146.795,293.836,142.624L293.836,142.624z"/>
	<path style="fill:#656D78;" d="M339.076,97.368l-15.074-15.059l-15.091,15.074l15.091,15.091l0,0l0,0
		c4.154,4.155,10.919,4.155,15.074,0c4.171-4.171,4.171-10.92,0-15.091C339.076,97.383,339.076,97.383,339.076,97.368z"/>
	<path style="fill:#656D78;" d="M384.332,52.144c-0.016,0-0.016,0-0.016,0l0,0l-15.075-15.09l-15.075,15.09l15.075,15.075l0,0
		c4.171,4.171,10.919,4.171,15.091,0C388.486,63.064,388.486,56.315,384.332,52.144z"/>
</g>
<g>
</g>
<g>
</g>
<g>
</g>
<g>
</g>
<g>
</g>
<g>
</g>
<g>
</g>
<g>
</g>
<g>
</g>
<g>
</g>
<g>
</g>
<g>
</g>
<g>
</g>
<g>
</g>
<g>
</g>
</svg>
