<?xml version="1.0" encoding="iso-8859-1"?>
<!-- Generator: Adobe Illustrator 19.0.0, SVG Export Plug-In . SVG Version: 6.00 Build 0)  -->
<svg version="1.1" id="Layer_1" xmlns="http://www.w3.org/2000/svg" xmlns:xlink="http://www.w3.org/1999/xlink" x="0px" y="0px"
	 viewBox="0 0 511.882 511.882" style="enable-background:new 0 0 511.882 511.882;" xml:space="preserve">
<polygon style="fill:#F6BB42;" points="437.247,0 74.651,0 53.328,511.882 458.554,511.882 "/>
<polygon style="fill:#FFCE54;" points="440.793,85.316 437.247,0 74.651,0 71.096,85.316 "/>
<path style="fill:#F5F7FA;" d="M223.952,0v127.971c0,5.897,4.772,10.67,10.662,10.67s10.669-4.772,10.669-10.67
	c0,5.897,4.772,10.67,10.662,10.67c5.889,0,10.661-4.772,10.661-10.67c0,5.897,4.78,10.67,10.677,10.67
	c5.875,0,10.654-4.772,10.654-10.67V0H223.952z"/>
<polygon style="fill:#DA4453;" points="138.636,383.912 205.675,272.187 272.707,383.912 "/>
<polygon style="fill:#ED5564;" points="194.498,383.912 283.876,227.51 373.261,383.912 "/>
<g>
</g>
<g>
</g>
<g>
</g>
<g>
</g>
<g>
</g>
<g>
</g>
<g>
</g>
<g>
</g>
<g>
</g>
<g>
</g>
<g>
</g>
<g>
</g>
<g>
</g>
<g>
</g>
<g>
</g>
</svg>
