<?xml version="1.0" encoding="iso-8859-1"?>
<!-- Generator: Adobe Illustrator 19.0.0, SVG Export Plug-In . SVG Version: 6.00 Build 0)  -->
<svg version="1.1" id="Layer_1" xmlns="http://www.w3.org/2000/svg" xmlns:xlink="http://www.w3.org/1999/xlink" x="0px" y="0px"
	 viewBox="0 0 511.883 511.883" style="enable-background:new 0 0 511.883 511.883;" xml:space="preserve">
<g>
	<path style="fill:#656D78;" d="M437.227,319.927c-4.468,0-8.623-2.827-10.106-7.295c-1.875-5.593,1.155-11.638,6.732-13.497
		l63.985-21.323c5.593-1.859,11.638,1.156,13.497,6.748c1.858,5.577-1.156,11.622-6.749,13.481l-63.985,21.323
		C439.492,319.74,438.352,319.927,437.227,319.927z"/>
	<path style="fill:#656D78;" d="M437.227,394.566c-4.468,0-8.623-2.827-10.106-7.295c-1.875-5.576,1.155-11.622,6.732-13.481
		l63.985-21.323c5.593-1.874,11.638,1.156,13.497,6.733c1.858,5.592-1.156,11.638-6.749,13.497l-63.985,21.323
		C439.492,394.395,438.352,394.566,437.227,394.566z"/>
	<path style="fill:#656D78;" d="M437.227,245.273c-4.468,0-8.623-2.828-10.106-7.295c-1.875-5.592,1.155-11.622,6.732-13.481
		l63.985-21.339c5.593-1.859,11.638,1.156,13.497,6.749c1.858,5.592-1.156,11.622-6.749,13.481l-63.985,21.339
		C439.492,245.101,438.352,245.273,437.227,245.273z"/>
</g>
<g>
	<path style="fill:#434A54;" d="M362.588,476.329v24.885c0,5.89,4.766,10.654,10.654,10.654h42.662
		c5.889,0,10.67-4.765,10.67-10.654v-24.885H362.588z"/>
	<path style="fill:#434A54;" d="M42.662,501.213L42.662,501.213c0,5.89,4.772,10.67,10.662,10.67h42.654
		c5.889,0,10.669-4.78,10.669-10.67l0,0v-24.885H42.662V501.213z"/>
</g>
<rect x="21.331" y="106.632" style="fill:#E6E9ED;" width="426.56" height="383.91"/>
<path style="fill:#656D78;" d="M106.647,0.001C47.746,0.001,0,47.74,0,106.632v42.662h469.221V0.001H106.647z"/>
<rect x="21.331" y="298.592" style="fill:#CCD1D9;" width="426.56" height="21.339"/>
<path style="fill:#434A54;" d="M8.888,63.986H469.22V42.647H21.331C16.394,49.209,12.215,56.363,8.888,63.986z"/>
<path style="fill:#FFCE54;" d="M426.574,106.632c0,5.89-4.781,10.67-10.67,10.67s-10.67-4.78-10.67-10.67
	c0-5.889,4.781-10.653,10.67-10.653S426.574,100.743,426.574,106.632z"/>
<path style="fill:#ED5564;" d="M383.912,106.632c0,5.89-4.781,10.67-10.67,10.67s-10.654-4.78-10.654-10.67
	c0-5.889,4.766-10.653,10.654-10.653S383.912,100.743,383.912,106.632z"/>
<path style="fill:#A0D468;" d="M341.25,106.632c0,5.89-4.765,10.67-10.654,10.67c-5.889,0-10.67-4.78-10.67-10.67
	c0-5.889,4.781-10.653,10.67-10.653C336.485,95.979,341.25,100.743,341.25,106.632z"/>
<g>
	<path style="fill:#434A54;" d="M201.922,170.618h63.986c5.889,0,10.653-4.765,10.653-10.653v-10.67H191.26v10.67
		C191.26,165.853,196.033,170.618,201.922,170.618z"/>
	<path style="fill:#434A54;" d="M266.61,319.927h-63.985h-10.669v10.653c0,5.89,4.78,10.67,10.669,10.67h63.985
		c5.89,0,10.653-4.78,10.653-10.67v-10.653H266.61z"/>
</g>
<g>
</g>
<g>
</g>
<g>
</g>
<g>
</g>
<g>
</g>
<g>
</g>
<g>
</g>
<g>
</g>
<g>
</g>
<g>
</g>
<g>
</g>
<g>
</g>
<g>
</g>
<g>
</g>
<g>
</g>
</svg>
