<?xml version="1.0" encoding="iso-8859-1"?>
<!-- Generator: Adobe Illustrator 19.0.0, SVG Export Plug-In . SVG Version: 6.00 Build 0)  -->
<svg version="1.1" id="Layer_1" xmlns="http://www.w3.org/2000/svg" xmlns:xlink="http://www.w3.org/1999/xlink" x="0px" y="0px"
	 viewBox="0 0 511.882 511.882" style="enable-background:new 0 0 511.882 511.882;" xml:space="preserve">
<path style="fill:#F6BB42;" d="M493.136,18.746c-24.994-24.994-65.5-24.994-90.495,0l0,0l0,0L0,421.403v90.479h90.479
	l402.657-402.643C518.13,84.246,518.13,43.74,493.136,18.746z"/>
<path style="fill:#EC87C0;" d="M478.062,124.315l15.074-15.075c24.994-24.994,24.994-65.5,0-90.494
	c-24.994-24.994-65.5-24.994-90.495,0l0,0L387.567,33.82L478.062,124.315z"/>
<path style="fill:#FFCE54;" d="M425.339,71.592L75.466,421.465l0,0c-4.155,4.171-4.155,10.92,0,15.075
	c4.171,4.171,10.92,4.171,15.091,0L440.414,86.683L425.339,71.592z"/>
<polygon style="fill:#FFE5AB;" points="0,421.403 0,511.882 90.479,511.882 "/>
<polygon style="fill:#E6E9ED;" points="417.795,184.708 327.299,94.212 387.629,33.898 478.125,124.378 "/>
<g>
	<path style="fill:#CCD1D9;" d="M380.099,71.592l-15.09-15.074c-0.016-0.031-0.047-0.047-0.062-0.062L349.873,71.53
		c0.016,0.016,0.031,0.047,0.062,0.062l15.074,15.091c4.171,4.155,10.92,4.155,15.09,0
		C384.255,82.512,384.255,75.763,380.099,71.592z"/>
	<path style="fill:#CCD1D9;" d="M425.199,146.873l15.09,15.074c0.016,0.031,0.047,0.047,0.062,0.062l15.075-15.074
		c-0.016-0.016-0.031-0.047-0.062-0.062l-15.075-15.091c-4.17-4.155-10.919-4.155-15.09,0
		C421.044,135.952,421.044,142.702,425.199,146.873z"/>
</g>
<polygon style="fill:#656D78;" points="0,481.717 0,511.882 30.165,511.882 "/>
<g>
</g>
<g>
</g>
<g>
</g>
<g>
</g>
<g>
</g>
<g>
</g>
<g>
</g>
<g>
</g>
<g>
</g>
<g>
</g>
<g>
</g>
<g>
</g>
<g>
</g>
<g>
</g>
<g>
</g>
</svg>
