<?xml version="1.0" encoding="iso-8859-1"?>
<!-- Generator: Adobe Illustrator 19.0.0, SVG Export Plug-In . SVG Version: 6.00 Build 0)  -->
<svg version="1.1" id="Layer_1" xmlns="http://www.w3.org/2000/svg" xmlns:xlink="http://www.w3.org/1999/xlink" x="0px" y="0px"
	 viewBox="0 0 511.884 511.884" style="enable-background:new 0 0 511.884 511.884;" xml:space="preserve">
<path style="fill:#AC92EB;" d="M255.942,170.525c0,70.679,57.284,127.971,127.971,127.971c70.671,0,127.971-57.292,127.971-127.971
	s-57.3-127.971-127.971-127.971C313.225,42.554,255.942,99.846,255.942,170.525z"/>
<polygon style="fill:#E6E9ED;" points="309.257,213.39 351.92,142.297 394.566,213.39 "/>
<g>
	<polygon style="fill:#F5F7FA;" points="344.812,213.39 401.69,113.859 458.551,213.39 	"/>
	<path style="fill:#F5F7FA;" d="M394.566,64.089c0,5.89-4.765,10.67-10.653,10.67c-5.89,0-10.67-4.78-10.67-10.67
		c0-5.889,4.78-10.661,10.67-10.661C389.801,53.427,394.566,58.199,394.566,64.089z"/>
	<path style="fill:#F5F7FA;" d="M394.566,277.376c0,5.89-4.765,10.653-10.653,10.653c-5.89,0-10.67-4.764-10.67-10.653
		s4.78-10.661,10.67-10.661C389.801,266.714,394.566,271.486,394.566,277.376z"/>
	<path style="fill:#F5F7FA;" d="M352.951,68.127c2.249,5.444-0.328,11.685-5.78,13.935c-5.436,2.257-11.669-0.328-13.918-5.772
		c-2.266-5.436,0.328-11.677,5.764-13.934C344.453,60.105,350.702,62.691,352.951,68.127z"/>
	<path style="fill:#F5F7FA;" d="M434.573,265.174c2.249,5.443-0.328,11.685-5.78,13.934c-5.437,2.266-11.669-0.327-13.919-5.764
		c-2.265-5.444,0.328-11.685,5.765-13.942C426.075,257.154,432.323,259.738,434.573,265.174z"/>
	<path style="fill:#F5F7FA;" d="M316.038,87.786c4.17,4.163,4.17,10.919,0,15.083c-4.156,4.163-10.92,4.163-15.075,0
		c-4.171-4.163-4.171-10.919,0-15.083C305.118,83.623,311.881,83.623,316.038,87.786z"/>
	<path style="fill:#F5F7FA;" d="M466.862,238.603c4.155,4.163,4.155,10.912,0,15.083c-4.171,4.164-10.92,4.164-15.09,0
		c-4.156-4.163-4.156-10.919,0-15.083C455.942,234.439,462.691,234.439,466.862,238.603z"/>
	<path style="fill:#F5F7FA;" d="M289.465,120.068c5.436,2.257,8.029,8.498,5.764,13.935c-2.249,5.444-8.482,8.029-13.934,5.772
		c-5.437-2.25-8.014-8.491-5.765-13.934C277.78,120.404,284.029,117.818,289.465,120.068z"/>
	<path style="fill:#F5F7FA;" d="M486.514,201.689c5.436,2.257,8.029,8.498,5.764,13.934c-2.25,5.444-8.482,8.03-13.918,5.772
		c-5.453-2.249-8.029-8.49-5.78-13.934S481.078,199.439,486.514,201.689z"/>
	<path style="fill:#F5F7FA;" d="M277.264,160.066c5.891,0.008,10.67,4.78,10.67,10.669c0,5.89-4.779,10.662-10.67,10.662
		c-5.889,0-10.669-4.772-10.669-10.662C266.595,164.847,271.376,160.074,277.264,160.066z"/>
	<path style="fill:#F5F7FA;" d="M490.544,160.066c5.89,0.008,10.67,4.78,10.67,10.669c0,5.89-4.78,10.662-10.67,10.662
		c-5.889,0-10.653-4.772-10.653-10.662C479.89,164.847,484.655,160.066,490.544,160.066z"/>
	<path style="fill:#F5F7FA;" d="M281.311,201.689c5.436-2.25,11.669,0.336,13.918,5.772c2.266,5.444-0.328,11.685-5.764,13.934
		c-5.437,2.258-11.686-0.328-13.935-5.772C273.282,210.188,275.859,203.947,281.311,201.689z"/>
	<path style="fill:#F5F7FA;" d="M478.344,120.068c5.451-2.25,11.684,0.336,13.949,5.78c2.25,5.436-0.344,11.677-5.779,13.926
		c-5.437,2.257-11.686-0.328-13.935-5.772C470.331,128.566,472.907,122.325,478.344,120.068z"/>
	<path style="fill:#F5F7FA;" d="M300.963,238.603c4.155-4.163,10.919-4.163,15.075,0c4.17,4.163,4.17,10.919,0,15.083
		c-4.156,4.164-10.92,4.164-15.075,0C296.792,249.515,296.792,242.766,300.963,238.603z"/>
	<path style="fill:#F5F7FA;" d="M451.772,87.786c4.17-4.163,10.919-4.163,15.09,0c4.155,4.163,4.155,10.919,0,15.083
		c-4.171,4.163-10.92,4.163-15.09,0C447.616,98.706,447.616,91.949,451.772,87.786z"/>
	<path style="fill:#F5F7FA;" d="M333.237,265.174c2.265-5.437,8.498-8.021,13.934-5.772c5.452,2.258,8.029,8.498,5.78,13.942
		c-2.249,5.437-8.498,8.029-13.935,5.764C333.581,276.859,330.987,270.618,333.237,265.174z"/>
	<path style="fill:#F5F7FA;" d="M414.858,68.127c2.266-5.436,8.498-8.021,13.95-5.772c5.437,2.257,8.014,8.498,5.765,13.934
		c-2.25,5.444-8.498,8.03-13.935,5.772C415.202,79.812,412.609,73.571,414.858,68.127z"/>
</g>
<path style="fill:#434A54;" d="M223.824,362.699C179.74,316.397,184.989,279,194.237,258.497c5.358-8.288,8.373-17.692,8.373-27.674
	c0-33.188-33.414-60.088-74.639-60.088s-74.655,26.9-74.655,60.088c0,9.982,3.03,19.386,8.373,27.674
	c9.248,20.503,14.512,57.9-29.571,104.202v28.478c17.792,10.467,60.111,11.357,95.853,4.952c35.726,6.405,78.044,5.515,95.853-4.952
	L223.824,362.699L223.824,362.699z"/>
<rect x="32.122" y="362.703" style="fill:#E6E9ED;" width="191.71" height="81.75"/>
<path style="fill:#AC92EB;" d="M255.942,458.677c0,5.874-4.78,10.654-10.669,10.654H10.654C4.765,469.331,0,464.551,0,458.677
	v-42.678c0-5.873,4.765-10.653,10.654-10.653h234.618c5.89,0,10.669,4.78,10.669,10.653L255.942,458.677L255.942,458.677z"/>
<g>
</g>
<g>
</g>
<g>
</g>
<g>
</g>
<g>
</g>
<g>
</g>
<g>
</g>
<g>
</g>
<g>
</g>
<g>
</g>
<g>
</g>
<g>
</g>
<g>
</g>
<g>
</g>
<g>
</g>
</svg>
