<?xml version="1.0" encoding="iso-8859-1"?>
<!-- Generator: Adobe Illustrator 19.0.0, SVG Export Plug-In . SVG Version: 6.00 Build 0)  -->
<svg version="1.1" id="Layer_1" xmlns="http://www.w3.org/2000/svg" xmlns:xlink="http://www.w3.org/1999/xlink" x="0px" y="0px"
	 viewBox="0 0 511.883 511.883" style="enable-background:new 0 0 511.883 511.883;" xml:space="preserve">
<path style="fill:#CCD1D9;" d="M501.213,271.934H10.654C4.765,271.934,0,276.714,0,282.587v191.956
	c0,5.904,4.765,10.685,10.654,10.685h490.559c5.889,0,10.67-4.78,10.67-10.685V282.587
	C511.883,276.714,507.102,271.934,501.213,271.934z"/>
<path style="fill:#E6E9ED;" d="M501.213,250.603H10.654c-5.889,0-10.654,4.78-10.654,10.67v191.964
	c0,5.873,4.765,10.653,10.654,10.653h490.559c5.889,0,10.67-4.78,10.67-10.653V261.272
	C511.883,255.383,507.102,250.603,501.213,250.603z"/>
<path style="fill:#656D78;" d="M447.897,421.243H63.986c-5.89,0-10.669-4.78-10.669-10.685c0-5.874,4.78-10.654,10.669-10.654
	h383.911c5.89,0,10.654,4.78,10.654,10.654C458.551,416.462,453.787,421.243,447.897,421.243z"/>
<path style="fill:#CCD1D9;" d="M447.897,271.934H63.986c-5.89,0-10.669-4.771-10.669-10.661c0-5.89,4.78-10.67,10.669-10.67h383.911
	c5.89,0,10.654,4.78,10.654,10.67C458.551,267.163,453.787,271.934,447.897,271.934z"/>
<rect x="74.642" y="26.655" style="fill:#ED5564;" width="362.59" height="234.62"/>
<polygon style="fill:#E6E9ED;" points="149.295,218.611 210.234,117.056 271.172,218.611 "/>
<polygon style="fill:#F5F7FA;" points="200.08,218.611 281.327,76.424 362.573,218.611 "/>
<path style="fill:#A0D468;" d="M421.997,303.926c0,5.905,4.781,10.653,10.67,10.653c5.89,0,10.654-4.748,10.654-10.653
	c0-5.874-4.765-10.654-10.654-10.654C426.778,293.272,421.997,298.052,421.997,303.926z"/>
<path style="fill:#ED5564;" d="M379.335,303.926c0,5.905,4.781,10.653,10.67,10.653c5.89,0,10.67-4.748,10.67-10.653
	c0-5.874-4.78-10.654-10.67-10.654C384.116,293.272,379.335,298.052,379.335,303.926z"/>
<path style="fill:#FFCE54;" d="M336.688,303.926c0,5.905,4.766,10.653,10.654,10.653c5.89,0,10.67-4.748,10.67-10.653
	c0-5.874-4.78-10.654-10.67-10.654C341.454,293.272,336.688,298.052,336.688,303.926z"/>
<g>
</g>
<g>
</g>
<g>
</g>
<g>
</g>
<g>
</g>
<g>
</g>
<g>
</g>
<g>
</g>
<g>
</g>
<g>
</g>
<g>
</g>
<g>
</g>
<g>
</g>
<g>
</g>
<g>
</g>
</svg>
