<?xml version="1.0" encoding="iso-8859-1"?>
<!-- Generator: Adobe Illustrator 19.0.0, SVG Export Plug-In . SVG Version: 6.00 Build 0)  -->
<svg version="1.1" id="Layer_1" xmlns="http://www.w3.org/2000/svg" xmlns:xlink="http://www.w3.org/1999/xlink" x="0px" y="0px"
	 viewBox="0 0 511.881 511.881" style="enable-background:new 0 0 511.881 511.881;" xml:space="preserve">
<g>
	<rect y="10.67" style="fill:#E6E9ED;" width="266.18" height="170.62"/>
	<rect x="245.701" y="10.67" style="fill:#E6E9ED;" width="266.18" height="170.62"/>
	<rect y="159.961" style="fill:#E6E9ED;" width="266.18" height="191.96"/>
	<rect x="245.701" y="159.961" style="fill:#E6E9ED;" width="266.18" height="191.96"/>
	<rect y="330.591" style="fill:#E6E9ED;" width="266.18" height="170.62"/>
	<rect x="245.701" y="330.591" style="fill:#E6E9ED;" width="266.18" height="170.62"/>
</g>
<g>
	<path style="fill:#434A54;" d="M298.587,437.227h42.678c5.873,0,10.653-4.764,10.653-10.653s-4.78-10.67-10.653-10.67h-42.678
		c-5.874,0-10.654,4.78-10.654,10.67S292.713,437.227,298.587,437.227z"/>
	<path style="fill:#434A54;" d="M405.25,458.566H298.587c-5.874,0-10.654,4.765-10.654,10.654s4.78,10.669,10.654,10.669h106.662
		c5.874,0,10.654-4.779,10.654-10.669S411.124,458.566,405.25,458.566z"/>
</g>
<path style="fill:#5D9CEC;" d="M490.543,383.912c0,5.89-4.764,10.669-10.653,10.669s-10.653-4.779-10.653-10.669
	s4.764-10.67,10.653-10.67S490.543,378.022,490.543,383.912z"/>
<g>
	<path style="fill:#434A54;" d="M298.587,266.611h42.678c5.873,0,10.653-4.78,10.653-10.67c0-5.889-4.78-10.669-10.653-10.669
		h-42.678c-5.874,0-10.654,4.78-10.654,10.669C287.933,261.831,292.713,266.611,298.587,266.611z"/>
	<path style="fill:#434A54;" d="M405.25,287.933H298.587c-5.874,0-10.654,4.781-10.654,10.67c0,5.89,4.78,10.654,10.654,10.654
		h106.662c5.874,0,10.654-4.765,10.654-10.654C415.904,292.714,411.124,287.933,405.25,287.933z"/>
</g>
<path style="fill:#5D9CEC;" d="M490.543,213.279c0,5.89-4.764,10.669-10.653,10.669s-10.653-4.78-10.653-10.669
	c0-5.889,4.764-10.654,10.653-10.654S490.543,207.39,490.543,213.279z"/>
<g>
	<path style="fill:#434A54;" d="M298.587,95.978h42.678c5.873,0,10.653-4.78,10.653-10.67c0-5.889-4.78-10.653-10.653-10.653
		h-42.678c-5.874,0-10.654,4.764-10.654,10.653C287.933,91.198,292.713,95.978,298.587,95.978z"/>
	<path style="fill:#434A54;" d="M405.25,117.301H298.587c-5.874,0-10.654,4.78-10.654,10.669c0,5.89,4.78,10.67,10.654,10.67
		h106.662c5.874,0,10.654-4.78,10.654-10.67C415.904,122.081,411.124,117.301,405.25,117.301z"/>
</g>
<path style="fill:#5D9CEC;" d="M490.543,42.662c0,5.89-4.764,10.654-10.653,10.654s-10.653-4.765-10.653-10.654
	s4.764-10.669,10.653-10.669S490.543,36.773,490.543,42.662z"/>
<g>
	<path style="fill:#434A54;" d="M31.992,437.227h42.654c5.889,0,10.669-4.764,10.669-10.653s-4.78-10.67-10.669-10.67H31.992
		c-5.89,0-10.662,4.78-10.662,10.67S26.103,437.227,31.992,437.227z"/>
	<path style="fill:#434A54;" d="M138.632,458.566H31.992c-5.89,0-10.662,4.765-10.662,10.654s4.772,10.669,10.662,10.669h106.64
		c5.889,0,10.669-4.779,10.669-10.669S144.521,458.566,138.632,458.566z"/>
</g>
<path style="fill:#5D9CEC;" d="M223.948,383.912c0,5.89-4.772,10.669-10.662,10.669c-5.889,0-10.669-4.779-10.669-10.669
	s4.78-10.67,10.669-10.67C219.176,373.242,223.948,378.022,223.948,383.912z"/>
<g>
	<path style="fill:#434A54;" d="M31.992,266.611h42.654c5.889,0,10.669-4.78,10.669-10.67c0-5.889-4.78-10.669-10.669-10.669H31.992
		c-5.89,0-10.662,4.78-10.662,10.669C21.331,261.831,26.103,266.611,31.992,266.611z"/>
	<path style="fill:#434A54;" d="M138.632,287.933H31.992c-5.89,0-10.662,4.781-10.662,10.67c0,5.89,4.772,10.654,10.662,10.654
		h106.64c5.889,0,10.669-4.765,10.669-10.654C149.301,292.714,144.521,287.933,138.632,287.933z"/>
</g>
<path style="fill:#5D9CEC;" d="M223.948,213.279c0,5.89-4.772,10.669-10.662,10.669c-5.889,0-10.669-4.78-10.669-10.669
	c0-5.889,4.78-10.654,10.669-10.654C219.176,202.625,223.948,207.39,223.948,213.279z"/>
<g>
	<path style="fill:#434A54;" d="M31.992,95.978h42.654c5.889,0,10.669-4.78,10.669-10.67c0-5.889-4.78-10.653-10.669-10.653H31.992
		c-5.89,0-10.662,4.764-10.662,10.653C21.331,91.198,26.103,95.978,31.992,95.978z"/>
	<path style="fill:#434A54;" d="M138.632,117.301H31.992c-5.89,0-10.662,4.78-10.662,10.669c0,5.89,4.772,10.67,10.662,10.67h106.64
		c5.889,0,10.669-4.78,10.669-10.67C149.301,122.081,144.521,117.301,138.632,117.301z"/>
</g>
<path style="fill:#5D9CEC;" d="M223.948,42.662c0,5.89-4.772,10.654-10.662,10.654c-5.889,0-10.669-4.765-10.669-10.654
	s4.78-10.669,10.669-10.669C219.176,31.993,223.948,36.773,223.948,42.662z"/>
<g>
	<rect x="245.701" y="10.67" style="fill:#CCD1D9;" width="20.48" height="490.54"/>
	<rect y="159.961" style="fill:#CCD1D9;" width="511.88" height="20.479"/>
	<rect y="331.441" style="fill:#CCD1D9;" width="511.88" height="20.48"/>
</g>
<g>
</g>
<g>
</g>
<g>
</g>
<g>
</g>
<g>
</g>
<g>
</g>
<g>
</g>
<g>
</g>
<g>
</g>
<g>
</g>
<g>
</g>
<g>
</g>
<g>
</g>
<g>
</g>
<g>
</g>
</svg>
