<?xml version="1.0" encoding="iso-8859-1"?>
<!-- Generator: Adobe Illustrator 19.0.0, SVG Export Plug-In . SVG Version: 6.00 Build 0)  -->
<svg version="1.1" id="Layer_1" xmlns="http://www.w3.org/2000/svg" xmlns:xlink="http://www.w3.org/1999/xlink" x="0px" y="0px"
	 viewBox="0 0 511.882 511.882" style="enable-background:new 0 0 511.882 511.882;" xml:space="preserve">
<rect x="181.301" y="383.911" style="fill:#E6E9ED;" width="149.29" height="127.97"/>
<path style="fill:#48CFAD;" d="M415.904,394.565c0,5.905-4.765,10.67-10.654,10.67H106.647c-5.89,0-10.669-4.765-10.669-10.67
	V10.662C95.978,4.772,100.757,0,106.647,0H405.25c5.89,0,10.654,4.772,10.654,10.662L415.904,394.565L415.904,394.565z"/>
<polygon style="fill:#E6E9ED;" points="159.963,223.948 214.81,132.54 269.656,223.948 "/>
<polygon style="fill:#F5F7FA;" points="205.671,223.948 278.795,95.978 351.919,223.948 "/>
<g>
	<path style="fill:#434A54;" d="M288.636,341.25h-63.985c-5.889,0-10.669-4.765-10.669-10.67c0-5.873,4.78-10.653,10.669-10.653
		h63.985c5.889,0,10.67,4.78,10.67,10.653C299.306,336.485,294.525,341.25,288.636,341.25z"/>
	<path style="fill:#434A54;" d="M331.298,298.587h-149.31c-5.889,0-10.653-4.765-10.653-10.654c0-5.904,4.765-10.669,10.653-10.669
		h149.31c5.889,0,10.654,4.765,10.654,10.669C341.953,293.823,337.187,298.587,331.298,298.587z"/>
</g>
<path style="fill:#E6E9ED;" d="M362.587,21.323H149.309c-5.89,0-10.669-4.772-10.669-10.661C138.64,4.772,143.419,0,149.309,0
	h213.278c5.89,0,10.67,4.772,10.67,10.662C373.257,16.55,368.477,21.323,362.587,21.323z"/>
<path style="fill:#434A54;" d="M373.257,511.882H138.64c-5.89,0-10.67-4.78-10.67-10.67c0-5.889,4.78-10.669,10.67-10.669h234.617
	c5.889,0,10.654,4.78,10.654,10.669C383.912,507.102,379.146,511.882,373.257,511.882z"/>
<g>
</g>
<g>
</g>
<g>
</g>
<g>
</g>
<g>
</g>
<g>
</g>
<g>
</g>
<g>
</g>
<g>
</g>
<g>
</g>
<g>
</g>
<g>
</g>
<g>
</g>
<g>
</g>
<g>
</g>
</svg>
