<?xml version="1.0" encoding="iso-8859-1"?>
<!-- Generator: Adobe Illustrator 19.0.0, SVG Export Plug-In . SVG Version: 6.00 Build 0)  -->
<svg version="1.1" id="Layer_1" xmlns="http://www.w3.org/2000/svg" xmlns:xlink="http://www.w3.org/1999/xlink" x="0px" y="0px"
	 viewBox="0 0 511.882 511.882" style="enable-background:new 0 0 511.882 511.882;" xml:space="preserve">
<polygon style="fill:#F6BB42;" points="159.963,447.897 106.647,511.882 53.316,447.897 53.316,0 159.963,0 "/>
<path style="fill:#FFCE54;" d="M117.301,415.873V63.985H95.978v351.919l0,0c0,5.874,4.779,10.654,10.669,10.654
	s10.654-4.78,10.654-10.654V415.873z"/>
<path d="M266.61,437.212c0,5.905-4.78,10.686-10.669,10.686c-5.89,0-10.67-4.78-10.67-10.686c0-5.873,4.78-10.653,10.67-10.653
	C261.83,426.558,266.61,431.338,266.61,437.212z"/>
<polygon style="fill:#E6E9ED;" points="273.64,362.573 238.242,362.573 202.625,462.113 255.941,511.882 309.256,462.113 "/>
<path style="fill:#CCD1D9;" d="M255.941,447.897c-5.89,0-10.67-4.78-10.67-10.686v-31.992c0-5.874,4.78-10.654,10.67-10.654
	c5.889,0,10.669,4.78,10.669,10.654v31.992C266.61,443.117,261.83,447.897,255.941,447.897z"/>
<path style="fill:#434A54;" d="M255.941,0c-29.446,0-53.316,23.87-53.316,53.316v351.903h106.632V53.316
	C309.256,23.869,285.387,0,255.941,0z"/>
<g>
	<path style="fill:#D770AD;" d="M458.566,223.948c0,5.889-4.78,10.654-10.67,10.654h-85.309c-5.889,0-10.669-4.765-10.669-10.654
		v-85.324c0-5.89,4.78-10.654,10.669-10.654h85.309c5.89,0,10.67,4.765,10.67,10.654V223.948z"/>
	<path style="fill:#D770AD;" d="M458.566,373.226c0,5.905-4.78,10.686-10.67,10.686h-85.309c-5.889,0-10.669-4.78-10.669-10.686
		v-85.293c0-5.904,4.78-10.669,10.669-10.669h85.309c5.89,0,10.67,4.765,10.67,10.669V373.226z"/>
</g>
<g>
	<rect x="351.921" y="170.621" style="fill:#EC87C0;" width="106.65" height="170.62"/>
	<rect x="53.311" style="fill:#EC87C0;" width="106.65" height="63.985"/>
</g>
<polygon style="fill:#FFE5AB;" points="53.316,447.897 106.647,511.882 159.963,447.897 "/>
<polygon style="fill:#656D78;" points="88.87,490.544 106.647,511.882 124.409,490.544 "/>
<g>
</g>
<g>
</g>
<g>
</g>
<g>
</g>
<g>
</g>
<g>
</g>
<g>
</g>
<g>
</g>
<g>
</g>
<g>
</g>
<g>
</g>
<g>
</g>
<g>
</g>
<g>
</g>
<g>
</g>
</svg>
