<?xml version="1.0" encoding="iso-8859-1"?>
<!-- Generator: Adobe Illustrator 19.0.0, SVG Export Plug-In . SVG Version: 6.00 Build 0)  -->
<svg version="1.1" id="Layer_1" xmlns="http://www.w3.org/2000/svg" xmlns:xlink="http://www.w3.org/1999/xlink" x="0px" y="0px"
	 viewBox="0 0 511.882 511.882" style="enable-background:new 0 0 511.882 511.882;" xml:space="preserve">
<path style="fill:#656D78;" d="M501.228,245.283H10.669V95.974c0-23.558,19.105-42.646,42.662-42.646h405.235
	c23.557,0,42.662,19.089,42.662,42.646V245.283z"/>
<rect x="10.669" y="245.281" style="fill:#E6E9ED;" width="74.66" height="213.27"/>
<path d="M394.581,191.952c0,5.905,4.78,10.669,10.669,10.669c5.89,0,10.654-4.764,10.654-10.669c0-5.874-4.765-10.654-10.654-10.654
	C399.361,181.298,394.581,186.078,394.581,191.952z"/>
<path style="fill:#A0D468;" d="M426.574,127.966c0,5.905,4.779,10.67,10.669,10.67s10.653-4.765,10.653-10.67
	c0-5.874-4.764-10.653-10.653-10.653S426.574,122.093,426.574,127.966z"/>
<path style="fill:#ED5564;" d="M383.912,127.966c0,5.905,4.779,10.67,10.669,10.67s10.669-4.765,10.669-10.67
	c0-5.874-4.779-10.653-10.669-10.653S383.912,122.093,383.912,127.966z"/>
<path style="fill:#FFCE54;" d="M341.265,127.966c0,5.905,4.779,10.67,10.653,10.67c5.905,0,10.669-4.765,10.669-10.67
	c0-5.874-4.764-10.653-10.669-10.653C346.045,117.313,341.265,122.093,341.265,127.966z"/>
<path d="M95.978,191.952c0,5.905,4.78,10.669,10.669,10.669s10.669-4.764,10.669-10.669c0-5.874-4.78-10.654-10.669-10.654
	C100.757,181.298,95.978,186.078,95.978,191.952z"/>
<rect x="426.571" y="245.281" style="fill:#E6E9ED;" width="74.65" height="213.27"/>
<path style="fill:#F5F7FA;" d="M159.963,117.313H74.654c-5.89,0-10.669,4.764-10.669,10.653c0,5.905,4.78,10.67,10.669,10.67h85.309
	c5.905,0,10.669-4.765,10.669-10.67C170.632,122.077,165.868,117.313,159.963,117.313z"/>
<g>
	<path style="fill:#434A54;" d="M85.324,437.247H10.669C4.78,437.247,0,441.996,0,447.901s4.78,10.653,10.669,10.653h74.655
		c5.889,0,10.654-4.748,10.654-10.653S91.213,437.247,85.324,437.247z"/>
	<path style="fill:#434A54;" d="M501.228,437.247h-74.654c-5.89,0-10.67,4.749-10.67,10.654s4.78,10.653,10.67,10.653h74.654
		c5.889,0,10.654-4.748,10.654-10.653S507.117,437.247,501.228,437.247z"/>
	<path style="fill:#434A54;" d="M405.25,202.621H106.647c-5.89,0-10.669-4.764-10.669-10.669c0-5.889,4.78-10.654,10.669-10.654
		H405.25c5.89,0,10.654,4.765,10.654,10.654C415.904,197.857,411.139,202.621,405.25,202.621z"/>
</g>
<polygon style="fill:#E6E9ED;" points="319.925,405.254 127.97,405.254 127.97,191.952 383.912,191.952 383.912,341.269 "/>
<polygon style="fill:#CCD1D9;" points="319.925,341.269 319.925,405.254 383.912,341.269 "/>
<g>
</g>
<g>
</g>
<g>
</g>
<g>
</g>
<g>
</g>
<g>
</g>
<g>
</g>
<g>
</g>
<g>
</g>
<g>
</g>
<g>
</g>
<g>
</g>
<g>
</g>
<g>
</g>
<g>
</g>
</svg>
