<?xml version="1.0" encoding="iso-8859-1"?>
<!-- Generator: Adobe Illustrator 19.0.0, SVG Export Plug-In . SVG Version: 6.00 Build 0)  -->
<svg version="1.1" id="Layer_1" xmlns="http://www.w3.org/2000/svg" xmlns:xlink="http://www.w3.org/1999/xlink" x="0px" y="0px"
	 viewBox="0 0 511.886 511.886" style="enable-background:new 0 0 511.886 511.886;" xml:space="preserve">
<path d="M266.612,415.906c0,5.905-4.78,10.67-10.669,10.67s-10.654-4.765-10.654-10.67c0-5.889,4.765-10.653,10.654-10.653
	S266.612,410.017,266.612,415.906z"/>
<polygon style="fill:#FFCE54;" points="213.296,511.884 299.043,511.884 341.267,383.914 255.943,298.605 170.634,383.914 "/>
<path style="fill:#F6BB42;" d="M309.274,490.561h-42.662v-74.655c0-5.889-4.78-10.653-10.669-10.653s-10.654,4.765-10.654,10.653
	v74.655h-42.662c-5.889,0-10.669,4.78-10.669,10.669c0,5.89,4.78,10.654,10.669,10.654h106.647c5.89,0,10.653-4.765,10.653-10.654
	C319.927,495.341,315.164,490.561,309.274,490.561z"/>
<rect x="53.333" y="255.943" style="fill:#434A54;" width="412.83" height="21.339"/>
<g>
	<circle style="fill:#656D78;" cx="479.893" cy="266.613" r="31.993"/>
	<circle style="fill:#656D78;" cx="31.993" cy="266.613" r="31.993"/>
</g>
<path style="fill:#CCD1D9;" d="M466.863,0.002c1.578,10.529,2.375,21.198,2.375,31.993c0,28.806-5.64,56.737-16.762,83.027
	c-10.732,25.385-26.119,48.208-45.709,67.797c-19.604,19.59-42.412,34.977-67.812,45.708
	c-26.275,11.123-54.206,16.762-83.012,16.762s-56.737-5.639-83.012-16.762c-25.4-10.732-48.208-26.119-67.797-45.708
	s-34.976-42.412-45.724-67.797C48.303,88.732,42.664,60.8,42.664,31.995c0-10.795,0.796-21.464,2.375-31.993H23.496
	c-1.422,10.467-2.156,21.151-2.156,31.993c0,129.579,105.039,234.618,234.603,234.618c129.58,0,234.618-105.039,234.618-234.618
	c0-10.842-0.75-21.526-2.171-31.993L466.863,0.002L466.863,0.002z"/>
<g>
	<rect x="0.002" y="0.002" style="fill:#E6E9ED;" width="63.985" height="63.985"/>
	<rect x="447.893" y="0.002" style="fill:#E6E9ED;" width="63.986" height="63.985"/>
	<rect x="223.953" y="234.623" style="fill:#E6E9ED;" width="63.985" height="63.985"/>
</g>
<g>
</g>
<g>
</g>
<g>
</g>
<g>
</g>
<g>
</g>
<g>
</g>
<g>
</g>
<g>
</g>
<g>
</g>
<g>
</g>
<g>
</g>
<g>
</g>
<g>
</g>
<g>
</g>
<g>
</g>
</svg>
